<!-- Generated by IcoMoon.io -->
<svg version="1.1" xmlns="http://www.w3.org/2000/svg" width="320" height="448" viewBox="0 0 320 448">
<title></title>
<g id="icomoon-ignore">
</g>
<path fill="#000" d="M260.75 141.25c0-33.5-23.75-56-59-56h-80v112h80c35.25 0 59-22.5 59-56zM320 141.25c0 64.25-46.5 109.25-113.25 109.25h-85v29.5h126.25c4.5 0 8 3.5 8 8v32c0 4.5-3.5 8-8 8h-126.25v48c0 4.5-3.5 8-8 8h-41.75c-4.5 0-8-3.5-8-8v-48h-56c-4.5 0-8-3.5-8-8v-32c0-4.5 3.5-8 8-8h56v-29.5h-56c-4.5 0-8-3.5-8-8v-37.25c0-4.5 3.5-8 8-8h56v-157.25c0-4.5 3.5-8 8-8h134.75c66.75 0 113.25 45 113.25 109.25z"></path>
</svg>
